<?xml version="1.0" encoding="utf-8"?>
<!-- Generator: Adobe Illustrator 19.1.0, SVG Export Plug-In . SVG Version: 6.00 Build 0)  -->
<svg version="1.1" id="Layer_1" xmlns="http://www.w3.org/2000/svg" xmlns:xlink="http://www.w3.org/1999/xlink" x="0px" y="0px"
	 viewBox="0 0 1190.6 841.9" style="enable-background:new 0 0 1190.6 841.9;" xml:space="preserve">
<style type="text/css">
	.st0{clip-path:url(#SVGID_2_);}
	.st1{fill:#291F6C;}
</style>
<g>
	<defs>
		<rect id="SVGID_1_" x="0" y="-5.5" width="1190.6" height="841.9"/>
	</defs>
	<use xlink:href="#SVGID_1_"  style="overflow:visible;fill:#24195D;"/>
	<clipPath id="SVGID_2_">
		<use xlink:href="#SVGID_1_"  style="overflow:visible;"/>
	</clipPath>
	<g class="st0">
		<polygon class="st1" points="1388.8,633 1342.4,675.3 1294.6,633 1248.2,675.3 1200.3,633 1153.9,675.3 1106.1,633 1059.7,675.3 
			1011.9,633 965.5,675.3 917.6,633 871.2,675.3 823.4,633 777,675.3 729.2,633 682.8,675.3 634.9,633 588.2,675.6 588.2,675.6 
			540.4,633.4 494,675.7 446.2,633.4 399.8,675.7 351.9,633.4 305.6,675.7 257.7,633.4 211.3,675.7 163.5,633.4 117.1,675.7 
			69.3,633.4 22.9,675.7 -25,633.4 -71.4,675.7 -119.2,633.4 -165.6,675.7 -213.4,633.4 -260.2,676 -260.2,720.8 -213.4,678.2 
			-165.6,720.5 -119.2,678.2 -71.4,720.5 -25,678.2 22.9,720.5 69.3,678.2 117.1,720.5 163.5,678.2 211.3,720.5 257.7,678.2 
			305.6,720.5 351.9,678.2 399.8,720.5 446.2,678.2 494,720.5 540.4,678.2 588.2,720.5 628.5,683.8 628.5,683.7 634.9,677.8 
			682.8,720.1 729.2,677.8 777,720.1 823.4,677.8 871.2,720.1 917.6,677.8 965.5,720.1 1011.9,677.8 1059.7,720.1 1106.1,677.8 
			1153.9,720.1 1200.3,677.8 1248.2,720.1 1294.6,677.8 1342.4,720.1 1388.8,677.8 1436.6,720.1 1476.9,683.4 1476.9,638.6 
			1436.6,675.3 		"/>
		<polygon class="st1" points="1388.8,843.6 1342.4,885.9 1294.6,843.6 1248.2,885.9 1200.3,843.6 1153.9,885.9 1106.1,843.6 
			1059.7,885.9 1011.9,843.6 965.5,885.9 917.6,843.6 871.2,885.9 823.4,843.6 777,885.9 729.2,843.6 682.8,885.9 634.9,843.6 
			588.2,886.3 588.2,886.3 540.4,844 494,886.3 446.2,844 399.8,886.3 351.9,844 305.6,886.3 257.7,844 211.3,886.3 163.5,844 
			117.1,886.3 69.3,844 22.9,886.3 -25,844 -71.4,886.3 -119.2,844 -165.6,886.3 -213.4,844 -260.2,886.7 -260.2,931.5 
			-213.4,888.8 -165.6,931.1 -119.2,888.8 -71.4,931.1 -25,888.8 22.9,931.1 69.3,888.8 117.1,931.1 163.5,888.8 211.3,931.1 
			257.7,888.8 305.6,931.1 351.9,888.8 399.8,931.1 446.2,888.8 494,931.1 540.4,888.8 588.2,931.1 628.5,894.5 628.5,894.3 
			634.9,888.4 682.8,930.7 729.2,888.4 777,930.7 823.4,888.4 871.2,930.7 917.6,888.4 965.5,930.7 1011.9,888.4 1059.7,930.7 
			1106.1,888.4 1153.9,930.7 1200.3,888.4 1248.2,930.7 1294.6,888.4 1342.4,930.7 1388.8,888.4 1436.6,930.7 1476.9,894.1 
			1476.9,849.3 1436.6,885.9 		"/>
		<polygon class="st1" points="1388.8,738.3 1342.4,780.6 1294.6,738.3 1248.2,780.6 1200.3,738.3 1153.9,780.6 1106.1,738.3 
			1059.7,780.6 1011.9,738.3 965.5,780.6 917.6,738.3 871.2,780.6 823.4,738.3 777,780.6 729.2,738.3 682.8,780.6 634.9,738.3 
			588.2,780.9 588.2,781 540.4,738.7 494,781 446.2,738.7 399.8,781 351.9,738.7 305.6,781 257.7,738.7 211.3,781 163.5,738.7 
			117.1,781 69.3,738.7 22.9,781 -25,738.7 -71.4,781 -119.2,738.7 -165.6,781 -213.4,738.7 -260.2,781.4 -260.2,826.1 
			-213.4,783.5 -165.6,825.8 -119.2,783.5 -71.4,825.8 -25,783.5 22.9,825.8 69.3,783.5 117.1,825.8 163.5,783.5 211.3,825.8 
			257.7,783.5 305.6,825.8 351.9,783.5 399.8,825.8 446.2,783.5 494,825.8 540.4,783.5 588.2,825.8 628.5,789.1 628.5,789 
			634.9,783.1 682.8,825.4 729.2,783.1 777,825.4 823.4,783.1 871.2,825.4 917.6,783.1 965.5,825.4 1011.9,783.1 1059.7,825.4 
			1106.1,783.1 1153.9,825.4 1200.3,783.1 1248.2,825.4 1294.6,783.1 1342.4,825.4 1388.8,783.1 1436.6,825.4 1476.9,788.7 
			1476.9,743.9 1436.6,780.6 		"/>
		<polygon class="st1" points="1388.8,422.3 1342.4,464.6 1294.6,422.3 1248.2,464.6 1200.3,422.3 1153.9,464.6 1106.1,422.3 
			1059.7,464.6 1011.9,422.3 965.5,464.6 917.6,422.3 871.2,464.6 823.4,422.3 777,464.6 729.2,422.3 682.8,464.6 634.9,422.3 
			588.2,465 588.2,465 540.4,422.7 494,465 446.2,422.7 399.8,465 351.9,422.7 305.6,465 257.7,422.7 211.3,465 163.5,422.7 
			117.1,465 69.3,422.7 22.9,465 -25,422.7 -71.4,465 -119.2,422.7 -165.6,465 -213.4,422.7 -260.2,465.4 -260.2,510.2 
			-213.4,467.5 -165.6,509.8 -119.2,467.5 -71.4,509.8 -25,467.5 22.9,509.8 69.3,467.5 117.1,509.8 163.5,467.5 211.3,509.8 
			257.7,467.5 305.6,509.8 351.9,467.5 399.8,509.8 446.2,467.5 494,509.8 540.4,467.5 588.3,509.8 628.5,473.2 628.5,473 
			634.9,467.1 682.8,509.4 729.2,467.1 777,509.4 823.4,467.1 871.2,509.4 917.6,467.1 965.5,509.4 1011.9,467.1 1059.7,509.4 
			1106.1,467.1 1153.9,509.4 1200.3,467.1 1248.2,509.4 1294.6,467.1 1342.4,509.4 1388.8,467.1 1436.6,509.4 1476.9,472.8 
			1476.9,428 1436.6,464.6 		"/>
		<polygon class="st1" points="1388.8,527.7 1342.4,570 1294.6,527.7 1248.2,570 1200.3,527.7 1153.9,570 1106.1,527.7 1059.7,570 
			1011.9,527.7 965.5,570 917.6,527.7 871.2,570 823.4,527.7 777,570 729.2,527.7 682.8,570 634.9,527.7 588.2,570.3 588.2,570.3 
			540.4,528.1 494,570.4 446.2,528.1 399.8,570.4 351.9,528.1 305.6,570.4 257.7,528.1 211.3,570.4 163.5,528.1 117.1,570.4 
			69.3,528.1 22.9,570.4 -25,528.1 -71.4,570.4 -119.2,528.1 -165.6,570.4 -213.4,528.1 -260.2,570.7 -260.2,615.5 -213.4,572.9 
			-165.6,615.2 -119.2,572.9 -71.4,615.2 -25,572.9 22.9,615.2 69.3,572.9 117.1,615.2 163.5,572.9 211.3,615.2 257.7,572.9 
			305.6,615.2 351.9,572.9 399.8,615.2 446.2,572.9 494,615.2 540.4,572.9 588.2,615.2 628.5,578.5 628.5,578.4 634.9,572.5 
			682.8,614.8 729.2,572.5 777,614.8 823.4,572.5 871.2,614.8 917.6,572.5 965.5,614.8 1011.9,572.5 1059.7,614.8 1106.1,572.5 
			1153.9,614.8 1200.3,572.5 1248.2,614.8 1294.6,572.5 1342.4,614.8 1388.8,572.5 1436.6,614.8 1476.9,578.1 1476.9,533.3 
			1436.6,570 		"/>
		<polygon class="st1" points="1388.8,317 1342.4,359.3 1294.6,317 1248.2,359.3 1200.3,317 1153.9,359.3 1106.1,317 1059.7,359.3 
			1011.9,317 965.5,359.3 917.6,317 871.2,359.3 823.4,317 777,359.3 729.2,317 682.8,359.3 634.9,317 588.2,359.6 588.2,359.6 
			540.4,317.4 494,359.7 446.2,317.4 399.8,359.7 351.9,317.4 305.6,359.7 257.7,317.4 211.3,359.7 163.5,317.4 117.1,359.7 
			69.3,317.4 22.9,359.7 -25,317.4 -71.4,359.7 -119.2,317.4 -165.6,359.7 -213.4,317.4 -260.2,360 -260.2,404.8 -213.4,362.2 
			-165.6,404.5 -119.2,362.2 -71.4,404.5 -25,362.2 22.9,404.5 69.3,362.2 117.1,404.5 163.5,362.2 211.3,404.5 257.7,362.2 
			305.6,404.5 351.9,362.2 399.8,404.5 446.2,362.2 494,404.5 540.4,362.2 588.3,404.5 628.5,367.8 628.5,367.7 634.9,361.8 
			682.8,404.1 729.2,361.8 777,404.1 823.4,361.8 871.2,404.1 917.6,361.8 965.5,404.1 1011.9,361.8 1059.7,404.1 1106.1,361.8 
			1153.9,404.1 1200.3,361.8 1248.2,404.1 1294.6,361.8 1342.4,404.1 1388.8,361.8 1436.6,404.1 1476.9,367.4 1476.9,322.6 
			1436.6,359.3 		"/>
		<polygon class="st1" points="1436.6,-62 1388.8,-104.3 1342.4,-62 1294.6,-104.3 1248.2,-62 1200.3,-104.3 1153.9,-62 
			1106.1,-104.3 1059.7,-62 1011.9,-104.3 965.5,-62 917.6,-104.3 871.2,-62 823.4,-104.3 777,-62 729.2,-104.3 682.8,-62 
			634.9,-104.3 588.2,-61.7 540.4,-103.9 494,-61.6 446.2,-103.9 399.8,-61.6 351.9,-103.9 305.6,-61.6 257.7,-103.9 211.3,-61.6 
			163.5,-103.9 117.1,-61.6 69.3,-103.9 22.9,-61.6 -25,-103.9 -71.4,-61.6 -119.2,-103.9 -165.6,-61.6 -213.4,-103.9 -260.2,-61.3 
			-260.2,-16.5 -213.4,-59.1 -165.6,-16.8 -119.2,-59.1 -71.4,-16.8 -25,-59.1 22.9,-16.8 69.3,-59.1 117.1,-16.8 163.5,-59.1 
			211.3,-16.8 257.7,-59.1 305.6,-16.8 351.9,-59.1 399.8,-16.8 446.2,-59.1 494,-16.8 540.4,-59.1 588.3,-16.8 628.5,-53.5 
			628.5,-53.6 634.9,-59.5 682.8,-17.2 729.2,-59.5 777,-17.2 823.4,-59.5 871.2,-17.2 917.6,-59.5 965.5,-17.2 1011.9,-59.5 
			1059.7,-17.2 1106.1,-59.5 1153.9,-17.2 1200.3,-59.5 1248.2,-17.2 1294.6,-59.5 1342.4,-17.2 1388.8,-59.5 1436.6,-17.2 
			1476.9,-53.9 1476.9,-98.7 		"/>
		<polygon class="st1" points="1388.8,1 1342.4,43.3 1294.6,1 1248.2,43.3 1200.3,1 1153.9,43.3 1106.1,1 1059.7,43.3 1011.9,1 
			965.5,43.3 917.6,1 871.2,43.3 823.4,1 777,43.3 729.2,1 682.8,43.3 634.9,1 588.2,43.7 540.4,1.4 494,43.7 446.2,1.4 399.8,43.7 
			351.9,1.4 305.6,43.7 257.7,1.4 211.3,43.7 163.5,1.4 117.1,43.7 69.3,1.4 22.9,43.7 -25,1.4 -71.4,43.7 -119.2,1.4 -165.6,43.7 
			-213.4,1.4 -260.2,44.1 -260.2,88.8 -213.4,46.2 -165.6,88.5 -119.2,46.2 -71.4,88.5 -25,46.2 22.9,88.5 69.3,46.2 117.1,88.5 
			163.5,46.2 211.3,88.5 257.7,46.2 305.6,88.5 351.9,46.2 399.8,88.5 446.2,46.2 494,88.5 540.4,46.2 588.3,88.5 628.5,51.9 
			628.5,51.7 634.9,45.8 682.8,88.1 729.2,45.8 777,88.1 823.4,45.8 871.2,88.1 917.6,45.8 965.5,88.1 1011.9,45.8 1059.7,88.1 
			1106.1,45.8 1153.9,88.1 1200.3,45.8 1248.2,88.1 1294.6,45.8 1342.4,88.1 1388.8,45.8 1436.6,88.1 1476.9,51.4 1476.9,6.6 
			1436.6,43.3 		"/>
		<polygon class="st1" points="1388.8,106.3 1342.4,148.6 1294.6,106.3 1248.2,148.6 1200.3,106.3 1153.9,148.6 1106.1,106.3 
			1059.7,148.6 1011.9,106.3 965.5,148.6 917.6,106.3 871.2,148.6 823.4,106.3 777,148.6 729.2,106.3 682.8,148.6 634.9,106.3 
			588.2,149 540.4,106.7 494,149 446.2,106.7 399.8,149 351.9,106.7 305.6,149 257.7,106.7 211.3,149 163.5,106.7 117.1,149 
			69.3,106.7 22.9,149 -25,106.7 -71.4,149 -119.2,106.7 -165.6,149 -213.4,106.7 -260.2,149.4 -260.2,194.2 -213.4,151.6 
			-165.6,193.8 -119.2,151.6 -71.4,193.8 -25,151.6 22.9,193.8 69.3,151.6 117.1,193.8 163.5,151.6 211.3,193.8 257.7,151.6 
			305.6,193.8 351.9,151.6 399.8,193.8 446.2,151.6 494,193.8 540.4,151.6 588.3,193.8 628.5,157.2 628.5,157 634.9,151.2 
			682.8,193.4 729.2,151.2 777,193.4 823.4,151.2 871.2,193.4 917.6,151.2 965.5,193.4 1011.9,151.2 1059.7,193.4 1106.1,151.2 
			1153.9,193.4 1200.3,151.2 1248.2,193.4 1294.6,151.2 1342.4,193.4 1388.8,151.2 1436.6,193.4 1476.9,156.8 1476.9,112 
			1436.6,148.6 		"/>
		<polygon class="st1" points="1388.8,211.7 1342.4,254 1294.6,211.7 1248.2,254 1200.3,211.7 1153.9,254 1106.1,211.7 1059.7,254 
			1011.9,211.7 965.5,254 917.6,211.7 871.2,254 823.4,211.7 777,254 729.2,211.7 682.8,254 634.9,211.7 588.2,254.3 540.4,212.1 
			494,254.4 446.2,212.1 399.8,254.4 351.9,212.1 305.6,254.4 257.7,212.1 211.3,254.4 163.5,212.1 117.1,254.4 69.3,212.1 
			22.9,254.4 -25,212.1 -71.4,254.4 -119.2,212.1 -165.6,254.4 -213.4,212.1 -260.2,254.7 -260.2,299.5 -213.4,256.9 -165.6,299.2 
			-119.2,256.9 -71.4,299.2 -25,256.9 22.9,299.2 69.3,256.9 117.1,299.2 163.5,256.9 211.3,299.2 257.7,256.9 305.6,299.2 
			351.9,256.9 399.8,299.2 446.2,256.9 494,299.2 540.4,256.9 588.3,299.2 628.5,262.5 628.5,262.4 634.9,256.5 682.8,298.8 
			729.2,256.5 777,298.8 823.4,256.5 871.2,298.8 917.6,256.5 965.5,298.8 1011.9,256.5 1059.7,298.8 1106.1,256.5 1153.9,298.8 
			1200.3,256.5 1248.2,298.8 1294.6,256.5 1342.4,298.8 1388.8,256.5 1436.6,298.8 1476.9,262.1 1476.9,217.3 1436.6,254 		"/>
	</g>
</g>
</svg>
