<?xml version="1.0" encoding="utf-8"?>
<!-- Generator: Adobe Illustrator 19.1.0, SVG Export Plug-In . SVG Version: 6.00 Build 0)  -->
<svg version="1.1" id="Layer_1" xmlns="http://www.w3.org/2000/svg" xmlns:xlink="http://www.w3.org/1999/xlink" x="0px" y="0px"
	 viewBox="0 0 191.1 144" style="enable-background:new 0 0 191.1 144;" xml:space="preserve">
<style type="text/css">
	.st0{fill:none;}
	.st1{fill:#ACADAD;}
</style>
<g>
	<path class="st0" d="M119.5,126.4c0,6.9,5.6,12.5,12.5,12.5h17.9c6.9,0,12.5-5.6,12.5-12.5v-0.1h-42.9V126.4z M141,128.9
		c1.9,0,3.5,1.6,3.5,3.5c0,1.9-1.6,3.5-3.5,3.5c-1.9,0-3.5-1.6-3.5-3.5C137.5,130.4,139.1,128.9,141,128.9z"/>
	<path class="st0" d="M108.1,121.2H83c-1.3,5.7-4.6,10.9-9.4,14.4l-4,2h51.9l-3.8-1.9C112.7,132.1,109.4,126.9,108.1,121.2z"/>
	<polygon class="st0" points="119.5,92.2 119.5,98.4 119.5,123.7 162.4,123.7 162.4,61.8 119.5,61.8 	"/>
	<path class="st0" d="M110.7,121.2c1.2,4.8,4,9.1,8,12.1c-1.1-2.1-1.7-4.4-1.7-7v-5.1H110.7z"/>
	<path class="st0" d="M117,98.5H6v7.7c0,6.9,5.6,12.5,12.5,12.5H117V98.5z M95.6,113.5c-2.9,0-5.2-2.3-5.2-5.2s2.3-5.2,5.2-5.2
		c2.9,0,5.2,2.3,5.2,5.2S98.4,113.5,95.6,113.5z"/>
	<path class="st0" d="M172.6,5.1H18.5C11.6,5.1,6,10.7,6,17.6V96h111v-1.3V60.5c0-8.3,6.7-15,15-15h17.9c8.3,0,15,6.7,15,15V96h20.2
		V17.6C185.1,10.7,179.5,5.1,172.6,5.1z"/>
	<path class="st0" d="M164.9,118.7h7.7c6.9,0,12.5-5.6,12.5-12.5v-7.7h-20.2V118.7z"/>
	<path class="st0" d="M149.9,48H132c-6.5,0-11.7,4.9-12.4,11.2h42.6C161.6,53,156.4,48,149.9,48z M142.5,55.4c-2.8,0-5-0.8-5-1.7
		s2.3-1.7,5-1.7c2.8,0,5,0.8,5,1.7S145.3,55.4,142.5,55.4z"/>
	<path class="st1" d="M172.6,2.6H18.5c-8.3,0-15,6.7-15,15v88.5c0,8.3,6.7,15,15,15h61.9c-1.2,4.9-4.1,9.3-8.1,12.2l-13.4,6.7H126
		c1.8,0.8,3.9,1.3,6,1.3h17.9c8.3,0,15-6.7,15-15v-5.1h7.7c8.3,0,15-6.7,15-15V17.6C187.6,9.4,180.9,2.6,172.6,2.6z M18.5,118.7
		c-6.9,0-12.5-5.6-12.5-12.5v-7.7h111v20.2H18.5z M118.7,133.3c-4-3-6.9-7.3-8-12.1h6.3v5.1C117,128.9,117.6,131.2,118.7,133.3z
		 M69.6,137.6l4-2c4.9-3.5,8.2-8.7,9.4-14.4h25.1c1.3,5.7,4.6,10.9,9.6,14.5l3.8,1.9H69.6z M162.4,126.4c0,6.9-5.6,12.5-12.5,12.5
		H132c-6.9,0-12.5-5.6-12.5-12.5v-0.1h42.9V126.4z M162.4,123.7h-42.9V98.4v-6.2V61.8h42.9V123.7z M119.7,59.3
		C120.3,53,125.6,48,132,48h17.9c6.5,0,11.7,4.9,12.4,11.2H119.7z M185.1,106.2c0,6.9-5.6,12.5-12.5,12.5h-7.7V98.5h20.2V106.2z
		 M185.1,96h-20.2V60.5c0-8.3-6.7-15-15-15H132c-8.3,0-15,6.7-15,15v34.2V96H6V17.6c0-6.9,5.6-12.5,12.5-12.5h154.1
		c6.9,0,12.5,5.6,12.5,12.5V96z"/>
	<circle class="st1" cx="95.6" cy="108.3" r="5.2"/>
	<circle class="st1" cx="141" cy="132.3" r="3.5"/>
	<ellipse class="st1" cx="142.5" cy="53.6" rx="5" ry="1.7"/>
</g>
</svg>
