<?xml version="1.0" encoding="utf-8"?>
<!-- Generator: Adobe Illustrator 19.1.0, SVG Export Plug-In . SVG Version: 6.00 Build 0)  -->
<svg version="1.1" id="Layer_1" xmlns="http://www.w3.org/2000/svg" xmlns:xlink="http://www.w3.org/1999/xlink" x="0px" y="0px"
	 viewBox="0 0 141.9 98.4" style="enable-background:new 0 0 141.9 98.4;" xml:space="preserve">
<style type="text/css">
	.st0{fill:#FFFFFF;}
	.st1{fill:#ACADAD;}
</style>
<g>
	<path class="st0" d="M113.7,43.9c-1.1,16.7-16.3,30.8-37,36c6.2,4.4,15.1,7.2,25,7.2c2.9,0,5.8-0.2,8.6-0.7c0.1,0,0.1,0,0.2,0
		c0.4,0,0.9,0.2,1.1,0.7c1,2,2.6,3.4,4.5,4c2.6,0.8,5.5,0.1,7.9-2c-0.6-0.1-1.2-0.2-1.8-0.4c-1.5-0.5-2.9-1.4-4.1-2.6
		c-0.3-0.3-0.4-0.7-0.3-1.1c0.1-0.4,0.4-0.7,0.7-0.8c10.5-4,17.1-11.4,17.1-19.4C135.5,55.3,126.5,47.1,113.7,43.9z"/>
	<path class="st1" d="M137.9,64.8c0-10.7-10.1-19.9-24.2-23.3C113.4,19.5,89,1.8,59,1.8c-30.2,0-54.7,18-54.7,40.1
		c0,14,10,27.1,26.3,34.3c-1.1,1-2.4,1.8-3.8,2.3C25,79.2,23,79.3,21,78.8c-0.5-0.1-1,0.1-1.3,0.5c-0.3,0.4-0.3,0.9,0,1.3
		c3.8,5.4,9.1,8.5,14.2,8.5c1.4,0,2.8-0.2,4.2-0.7c3.4-1.2,6.3-3.8,8.2-7.5C50.4,81.7,54.7,82,59,82c5.1,0,10-0.5,14.7-1.5
		c6.7,5.5,16.7,9,27.9,9c2.7,0,5.5-0.2,8.1-0.6c1.3,2.2,3.2,3.7,5.4,4.5c0.9,0.3,1.9,0.4,2.9,0.4c3.5,0,7.1-1.9,9.6-5.3
		c0.3-0.4,0.3-0.9,0.1-1.4c-0.3-0.4-0.8-0.6-1.3-0.5c-1.3,0.3-2.5,0.2-3.7-0.2c-0.6-0.2-1.2-0.5-1.7-0.8
		C131.6,81.1,137.9,73.3,137.9,64.8z M118.5,84.2c-0.4,0.1-0.6,0.5-0.7,0.8c-0.1,0.4,0,0.8,0.3,1.1c1.2,1.3,2.5,2.1,4.1,2.6
		c0.6,0.2,1.2,0.3,1.8,0.4c-2.4,2-5.4,2.8-7.9,2c-1.9-0.6-3.5-2-4.5-4c-0.2-0.4-0.6-0.7-1.1-0.7c-0.1,0-0.1,0-0.2,0
		c-2.8,0.5-5.7,0.7-8.6,0.7c-9.9,0-18.8-2.8-25-7.2c20.7-5.2,35.9-19.2,37-36c12.8,3.2,21.9,11.4,21.9,20.9
		C135.5,72.7,129,80.2,118.5,84.2z M59,79.7c-4.5,0-8.9-0.4-13.2-1.2c-0.5-0.1-1.1,0.2-1.3,0.7c-1.6,3.5-4.1,6-7.2,7.1
		c-4.6,1.6-9.9-0.2-13.9-4.7c1.4,0,2.8-0.2,4.2-0.7c2.3-0.8,4.3-2.2,6-4.2c0.2-0.3,0.3-0.7,0.3-1.1c-0.1-0.4-0.4-0.7-0.7-0.8
		C16.8,68,6.7,55.4,6.7,41.9C6.7,21.1,30.1,4.2,59,4.2c28.9,0,52.4,16.9,52.4,37.8S87.9,79.7,59,79.7z"/>
	<path class="st0" d="M111.4,41.9c0-20.8-23.5-37.8-52.4-37.8C30.1,4.2,6.7,21.1,6.7,41.9c0,13.5,10.1,26.1,26.5,32.8
		c0.4,0.1,0.6,0.4,0.7,0.8c0.1,0.4,0,0.8-0.3,1.1c-1.7,2-3.7,3.4-6,4.2c-1.4,0.5-2.8,0.7-4.2,0.7c4.1,4.5,9.3,6.3,13.9,4.7
		c3.1-1.1,5.6-3.5,7.2-7.1c0.2-0.5,0.8-0.8,1.3-0.7c4.3,0.8,8.7,1.2,13.2,1.2C87.9,79.7,111.4,62.7,111.4,41.9z M30.3,29.6h57.3
		c1.4,0,2.5,1.3,2.5,2.9c0,1.6-1.1,2.9-2.5,2.9H30.3c-1.4,0-2.5-1.3-2.5-2.9C27.8,30.9,28.9,29.6,30.3,29.6z M30.3,39.9h57.3
		c1.4,0,2.5,1.3,2.5,2.9c0,1.6-1.1,2.9-2.5,2.9H30.3c-1.4,0-2.5-1.3-2.5-2.9C27.8,41.2,28.9,39.9,30.3,39.9z M30.3,56.1
		c-1.4,0-2.5-1.3-2.5-2.9c0-1.6,1.1-2.9,2.5-2.9h37.5c1.4,0,2.5,1.3,2.5,2.9c0,1.6-1.1,2.9-2.5,2.9H30.3z"/>
	<path class="st1" d="M30.3,35.4h57.3c1.4,0,2.5-1.3,2.5-2.9c0-1.6-1.1-2.9-2.5-2.9H30.3c-1.4,0-2.5,1.3-2.5,2.9
		C27.8,34.1,28.9,35.4,30.3,35.4z"/>
	<path class="st1" d="M30.3,45.8h57.3c1.4,0,2.5-1.3,2.5-2.9c0-1.6-1.1-2.9-2.5-2.9H30.3c-1.4,0-2.5,1.3-2.5,2.9
		C27.8,44.5,28.9,45.8,30.3,45.8z"/>
	<path class="st1" d="M67.9,56.1c1.4,0,2.5-1.3,2.5-2.9c0-1.6-1.1-2.9-2.5-2.9H30.3c-1.4,0-2.5,1.3-2.5,2.9c0,1.6,1.1,2.9,2.5,2.9
		H67.9z"/>
</g>
</svg>
