<?xml version="1.0" encoding="utf-8"?>
<!-- Generator: Adobe Illustrator 19.1.0, SVG Export Plug-In . SVG Version: 6.00 Build 0)  -->
<svg version="1.1" id="Layer_1" xmlns="http://www.w3.org/2000/svg" xmlns:xlink="http://www.w3.org/1999/xlink" x="0px" y="0px"
	 viewBox="0 0 141.9 141.4" style="enable-background:new 0 0 141.9 141.4;" xml:space="preserve">
<style type="text/css">
	.st0{fill:#ACADAD;}
</style>
<g>
	<g>
		<path class="st0" d="M131.7,99.6c-0.3,0-0.6-0.1-0.8-0.2l-28.3-16.3c-0.7-0.4-1-1.2-0.7-2c1.3-3.6,2-7.3,2-11.2
			c0-16.2-12.1-30.1-28.2-32.3c-0.8-0.1-1.4-0.8-1.4-1.6V3.4c0-0.4,0.2-0.9,0.5-1.2c0.3-0.3,0.8-0.5,1.2-0.4
			c35.6,2.5,63.5,32.4,63.5,68.1c0,10-2.1,19.7-6.4,28.8c-0.2,0.4-0.5,0.7-1,0.9C132.1,99.6,131.9,99.6,131.7,99.6z M105.4,80.9
			L131,95.7c3.5-8.2,5.3-16.8,5.3-25.8c0-33.4-25.7-61.5-58.8-64.7v29.4c17,3,29.6,18,29.6,35.3C107.1,73.7,106.5,77.4,105.4,80.9z"
			/>
	</g>
	<g>
		<path class="st0" d="M71.3,138.2c-23.2,0-44.6-11.6-57.3-31.2c-0.2-0.4-0.3-0.8-0.2-1.3c0.1-0.4,0.4-0.8,0.8-1l28.2-16.3
			c0.7-0.4,1.6-0.2,2.1,0.5c6.1,8.5,16,13.6,26.4,13.6c10.4,0,20.3-5.1,26.4-13.6c0.5-0.7,1.4-0.9,2.1-0.5l28.2,16.3
			c0.4,0.2,0.7,0.6,0.8,1s0,0.9-0.2,1.3C115.8,126.6,94.4,138.2,71.3,138.2z M17.7,106.7C29.9,124.4,49.8,135,71.3,135
			s41.4-10.5,53.6-28.3L99.4,92c-6.8,8.6-17.2,13.7-28.2,13.7S49.9,100.7,43.1,92L17.7,106.7z"/>
	</g>
	<g>
		<path class="st0" d="M10.8,99.6c-0.2,0-0.3,0-0.5-0.1c-0.4-0.1-0.8-0.4-1-0.9c-4.2-9.1-6.4-18.8-6.4-28.8
			c0-35.7,27.9-65.6,63.5-68.1c0.5,0,0.9,0.1,1.2,0.4c0.3,0.3,0.5,0.7,0.5,1.2V36c0,0.8-0.6,1.5-1.4,1.6
			c-16.1,2.2-28.2,16.1-28.2,32.3c0,3.8,0.7,7.6,2,11.2c0.3,0.7,0,1.6-0.7,2L11.6,99.4C11.4,99.5,11.1,99.6,10.8,99.6z M64.9,5.2
			C31.9,8.4,6.2,36.5,6.2,69.9c0,8.9,1.8,17.6,5.3,25.8l25.6-14.8c-1.1-3.5-1.7-7.2-1.7-11c0-17.4,12.6-32.3,29.6-35.3V5.2z"/>
	</g>
</g>
</svg>
